<svg width="17" height="15" viewBox="0 0 17 15" fill="none" xmlns="http://www.w3.org/2000/svg">
<path d="M2.75 0.625C2.02065 0.625 1.32118 0.914731 0.80546 1.43046C0.28973 1.94618 0 2.64565 0 3.375V3.65138L8.25 8.094L16.5 3.65275V3.375C16.5 2.64565 16.2103 1.94618 15.6945 1.43046C15.1788 0.914731 14.4793 0.625 13.75 0.625H2.75ZM16.5 5.21338L8.57588 9.48C8.47572 9.53392 8.36375 9.56214 8.25 9.56214C8.13625 9.56214 8.02428 9.53392 7.92413 9.48L0 5.21338V11.625C0 12.3543 0.28973 13.0538 0.80546 13.5695C1.32118 14.0853 2.02065 14.375 2.75 14.375H13.75C14.4793 14.375 15.1788 14.0853 15.6945 13.5695C16.2103 13.0538 16.5 12.3543 16.5 11.625V5.21338Z" fill="#1C4F4A"/>
</svg>
