<svg width="32.000000" height="32.000000" viewBox="0 0 32 32" fill="none" xmlns="http://www.w3.org/2000/svg" xmlns:xlink="http://www.w3.org/1999/xlink">
	<desc>
			Created with Pixso.
	</desc>
	<defs/>
	<rect id="Компоненты 1" width="31.157270" height="31.157270" fill="#FFFFFF" fill-opacity="0"/>
	<path id="Vector" d="M19.47 15.57C19.47 17.73 17.72 19.47 15.57 19.47C13.42 19.47 11.68 17.73 11.68 15.57C11.68 13.42 13.42 11.68 15.57 11.68C17.72 11.68 19.47 13.42 19.47 15.57Z" fill="#FC6719" fill-opacity="1.000000" fill-rule="nonzero"/>
	<path id="Vector" d="M31.15 15.57C31.15 17.73 29.41 19.47 27.26 19.47C25.11 19.47 23.36 17.73 23.36 15.57C23.36 13.42 25.11 11.68 27.26 11.68C29.41 11.68 31.15 13.42 31.15 15.57Z" fill="#FC6719" fill-opacity="1.000000" fill-rule="nonzero"/>
	<path id="Vector" d="M19.47 27.26C19.47 29.41 17.72 31.15 15.57 31.15C13.42 31.15 11.68 29.41 11.68 27.26C11.68 25.11 13.42 23.36 15.57 23.36C17.72 23.36 19.47 25.11 19.47 27.26Z" fill="#FC6719" fill-opacity="1.000000" fill-rule="nonzero"/>
	<path id="Vector" d="M19.47 3.89C19.47 6.04 17.72 7.78 15.57 7.78C13.42 7.78 11.68 6.04 11.68 3.89C11.68 1.74 13.42 0 15.57 0C17.72 0 19.47 1.74 19.47 3.89Z" fill="#FC6719" fill-opacity="1.000000" fill-rule="nonzero"/>
	<path id="Vector" d="M31.15 3.89C31.15 6.04 29.41 7.78 27.26 7.78C25.11 7.78 23.36 6.04 23.36 3.89C23.36 1.74 25.11 0 27.26 0C29.41 0 31.15 1.74 31.15 3.89Z" fill="#FC6719" fill-opacity="1.000000" fill-rule="nonzero"/>
	<path id="Vector" d="M7.78 15.57C7.78 17.73 6.04 19.47 3.89 19.47C1.74 19.47 0 17.73 0 15.57C0 13.42 1.74 11.68 3.89 11.68C6.04 11.68 7.78 13.42 7.78 15.57Z" fill="#FC6719" fill-opacity="1.000000" fill-rule="nonzero"/>
	<path id="Vector" d="M7.78 27.26C7.78 29.41 6.04 31.15 3.89 31.15C1.74 31.15 0 29.41 0 27.26C0 25.11 1.74 23.36 3.89 23.36C6.04 23.36 7.78 25.11 7.78 27.26Z" fill="#FC6719" fill-opacity="1.000000" fill-rule="nonzero"/>
</svg>
